# xmcd
#
# Track frame offsets: 
#        150
#        19135
#        46720
#        68325
#
# Disc length: 1162 seconds
#
# Revision: 5
# Processed by: cddbd v1.5.2PL0 Copyright (c) Steve Scherf et al.
# Submitted via: ExactAudioCopy v1.0b3
#
DISCID=23048804
DTITLE=ELISA - Real Force
DYEAR=2010
DGENRE=Anime
TTITLE0=Real Force
TTITLE1=ENDLESS ANTHOLOGY [Live ver.]
TTITLE2=凛々と [Live ver.]
TTITLE3=Real Force [Instrumental]
EXTD=YEAR: 2010
EXTT0=
EXTT1=
EXTT2=
EXTT3=
PLAYORDER=
